<?xml version="1.0" encoding="UTF-8"?>
<svg xmlns="http://www.w3.org/2000/svg" xmlns:xlink="http://www.w3.org/1999/xlink" viewBox="0 0 144 144" width="144px" height="144px">
<g id="surface93509638">
<path style=" stroke:none;fill-rule:nonzero;fill:rgb(100%,75.686276%,2.745098%);fill-opacity:1;" d="M 140.640625 58.292969 L 135.003906 58.292969 L 135.003906 58 L 72 58 L 72 86.003906 L 111.5625 86.003906 C 105.792969 102.300781 90.28125 114.003906 72 114.003906 C 48.808594 114.003906 30 95.195312 30 72 C 30 48.808594 48.808594 30 72 30 C 82.707031 30 92.449219 34.039062 99.867188 40.636719 L 119.664062 20.835938 C 107.164062 9.1875 90.441406 2 72 2 C 33.34375 2 2 33.34375 2 72 C 2 110.660156 33.34375 142.003906 72 142.003906 C 110.660156 142.003906 142.003906 110.660156 142.003906 72 C 142.003906 67.308594 141.519531 62.726562 140.640625 58.292969 Z M 140.640625 58.292969 "/>
<path style=" stroke:none;fill-rule:nonzero;fill:rgb(100%,23.921569%,0%);fill-opacity:1;" d="M 10.070312 39.417969 L 33.070312 56.285156 C 39.292969 40.878906 54.363281 30 72 30 C 82.707031 30 92.449219 34.039062 99.867188 40.636719 L 119.664062 20.835938 C 107.164062 9.1875 90.441406 2 72 2 C 45.113281 2 21.796875 17.179688 10.070312 39.417969 Z M 10.070312 39.417969 "/>
<path style=" stroke:none;fill-rule:nonzero;fill:rgb(29.803923%,68.627453%,31.37255%);fill-opacity:1;" d="M 72 142.003906 C 90.082031 142.003906 106.511719 135.082031 118.933594 123.832031 L 97.269531 105.496094 C 90.242188 110.820312 81.503906 114.003906 72 114.003906 C 53.792969 114.003906 38.335938 102.394531 32.511719 86.191406 L 9.683594 103.777344 C 21.269531 126.449219 44.796875 142.003906 72 142.003906 Z M 72 142.003906 "/>
<path style=" stroke:none;fill-rule:nonzero;fill:rgb(9.803922%,46.27451%,82.352942%);fill-opacity:1;" d="M 140.640625 58.292969 L 135.003906 58.292969 L 135.003906 58 L 72 58 L 72 86.003906 L 111.5625 86.003906 C 108.789062 93.832031 103.753906 100.582031 97.257812 105.5 C 97.261719 105.496094 97.265625 105.496094 97.269531 105.492188 L 118.933594 123.828125 C 117.402344 125.21875 142.003906 107.003906 142.003906 72 C 142.003906 67.308594 141.519531 62.726562 140.640625 58.292969 Z M 140.640625 58.292969 "/>
</g>
</svg>
