<svg xmlns="http://www.w3.org/2000/svg" xmlns:xlink="http://www.w3.org/1999/xlink" viewBox="0,0,256,256" width="48px" height="48px" fill-rule="nonzero"><g transform="translate(-21.33333,-21.33333) scale(1.16667,1.16667)"><g fill="none" fill-rule="nonzero" stroke="none" stroke-width="1" stroke-linecap="butt" stroke-linejoin="miter" stroke-miterlimit="10" stroke-dasharray="" stroke-dashoffset="0" font-family="none" font-weight="none" font-size="none" text-anchor="none" style="mix-blend-mode: normal"><g transform="translate(-10.66667,10.66667) scale(5.33333,5.33333)"><path d="M42,39v-30c0,-1.657 -1.343,-3 -3,-3h-30c-1.657,0 -3,1.343 -3,3v30c0,1.657 1.343,3 3,3h30c1.657,0 3,-1.343 3,-3z" fill="#1c9957"></path><path d="M9,42h30c1.657,0 -15,-16 -15,-16c0,0 -16.657,16 -15,16z" fill="#3e7bf1"></path><path d="M42,39v-30c0,-1.657 -16,15 -16,15c0,0 16,16.657 16,15z" fill="#cbccc9"></path><path d="M39,42c1.657,0 3,-1.343 3,-3v-0.245l-15.755,-15.755l-3.245,3.245l15.755,15.755z" fill="#efefef"></path><path d="M42,9c0,-1.657 -1.343,-3 -3,-3h-0.245l-32.755,32.755v0.245c0,1.657 1.343,3 3,3h0.245l32.755,-32.755z" fill="#ffd73d"></path><path d="M36,2c-5.523,0 -10,4.477 -10,10c0,6.813 7.666,9.295 9.333,19.851c0.107,0.68 0.115,1.149 0.667,1.149c0.552,0 0.56,-0.469 0.667,-1.149c1.667,-10.556 9.333,-13.038 9.333,-19.851c0,-5.523 -4.477,-10 -10,-10z" fill="#d73f35"></path><path d="M36,8.5c-1.933,0 -3.5,1.567 -3.5,3.5c0,1.933 1.567,3.5 3.5,3.5c1.933,0 3.5,-1.567 3.5,-3.5c0,-1.933 -1.567,-3.5 -3.5,-3.5z" fill="#752622"></path><path d="M14.493,12.531v2.101h2.994c-0.392,1.274 -1.455,2.185 -2.994,2.185c-1.833,0 -3.318,-1.485 -3.318,-3.318c0,-1.833 1.486,-3.318 3.318,-3.318c0.824,0 1.576,0.302 2.156,0.799l1.548,-1.547c-0.977,-0.89 -2.277,-1.433 -3.704,-1.433c-3.038,0 -5.501,2.463 -5.501,5.5c0,3.037 2.463,5.5 5.501,5.5c4.81,0 5.637,-4.317 5.184,-6.461z" fill="#ffffff"></path></g></g></g></svg>